Coordinates
version=1
nRows=25
nColumns=33
inDegrees=yes

Units are S.I. units (second, meters, Newtons, ...)
Angles are in degrees.

endheader
time	ground_thorax_rot_x	ground_thorax_rot_y	ground_thorax_rot_z	ground_thorax_tx	ground_thorax_ty	ground_thorax_tz	clav_prot_r	clav_elev_r	scapula_abduction_r	scapula_elevation_r	scapula_upward_rot_r	scapula_winging_r	shoulder_elv_r	plane_of_elev_r	axial_rot_r	elbow_flexion_r	pro_sup_r	wrist_flex_r	wrist_dev_r	clav_prot_l	clav_elev_l	scapula_abduction_l	scapula_elevation_l	scapula_upward_rot_l	scapula_winging_l	shoulder_elv_l	plane_of_elev_l	axial_rot_l	elbow_flexion_l	pro_sup_l	wrist_flex_l	wrist_dev_l	
12.8900	-90.000000	90.000000	-90.000000	-16.663615	821.535975	-39.951419	28.734685	35.939514	45.000000	45.000000	12.370086	2493.781413	468.768500	29.568041	-50.305165	1438.121822	165.534338	11.948160	14.775153	-45.000000	23.259076	39.965649	-17.039152	45.000000	3345.257014	-5282.952811	22.920664	180.000000	1796.678075	45.613057	17.084006	-22.933748	
12.9000	-90.000000	90.000000	-90.000000	-14.296477	820.139939	-39.730741	28.657989	35.994321	45.000000	45.000000	12.246892	2493.498615	468.717956	29.575674	-50.566215	1438.185938	166.193465	11.916294	14.727730	-45.000000	23.600899	40.084192	-17.258282	45.000000	3345.387394	-5282.926656	22.865341	180.000000	1796.761049	45.671716	17.133139	-22.826095	
12.9100	-90.000000	90.000000	-90.000000	-11.937479	818.712133	-39.513851	28.579365	36.050118	45.000000	45.000000	12.127962	2493.212127	468.667265	29.588034	-50.813121	1438.251228	166.839495	11.885651	14.679929	-45.000000	23.946112	40.203502	-17.481899	45.000000	3345.519807	-5282.901698	22.812230	180.000000	1796.838039	45.721482	17.179882	-22.712882	
12.9200	-90.000000	90.000000	-90.000000	-9.589413	817.252457	-39.301854	28.498538	36.106672	45.000000	45.000000	12.013734	2492.921217	468.616663	29.604882	-51.045804	1438.317506	167.472607	11.856329	14.631825	-45.000000	24.294288	40.322688	-17.709810	45.000000	3345.653885	-5282.878253	22.760879	180.000000	1796.909086	45.764258	17.223488	-22.595549	
12.9300	-90.000000	90.000000	-90.000000	-7.255005	815.761156	-39.095249	28.415516	36.163949	45.000000	45.000000	11.905450	2492.625565	468.565355	29.627063	-51.264531	1438.382908	168.093392	11.829020	14.582980	-45.000000	24.643110	40.442093	-17.940868	45.000000	3345.788788	-5282.856932	22.712952	180.000000	1796.974453	45.801130	17.262018	-22.474874	
12.9400	-90.000000	90.000000	-90.000000	-4.937339	814.239287	-38.894081	28.330244	36.221952	45.000000	45.000000	11.803931	2492.324867	468.513747	29.654560	-51.468077	1438.448568	168.702890	11.803183	14.532931	-45.000000	24.992075	40.561059	-18.174742	45.000000	3345.924589	-5282.837125	22.667824	180.000000	1797.032133	45.833455	17.294962	-22.351667	
12.9500	-90.000000	90.000000	-90.000000	-2.639889	812.688989	-38.698143	28.242594	36.280553	45.000000	45.000000	11.709185	2492.019888	468.462340	29.687012	-51.654864	1438.515591	169.301870	11.777915	14.481507	-45.000000	25.341559	40.679553	-18.411191	45.000000	3346.061714	-5282.819380	22.626430	180.000000	1797.080619	45.861782	17.322176	-22.226946	
12.9600	-90.000000	90.000000	-90.000000	-0.366473	811.113542	-38.507154	28.152060	36.339504	45.000000	45.000000	11.620140	2491.713082	468.412407	29.722649	-51.822407	1438.585265	169.889553	11.751667	14.429592	-45.000000	25.694630	40.797227	-18.651756	45.000000	3346.201184	-5282.805200	22.587793	180.000000	1797.118665	45.886524	17.345408	-22.102989	
12.9700	-90.000000	90.000000	-90.000000	1.879267	809.517080	-38.320796	28.058681	36.398952	45.000000	45.000000	11.536611	2491.405326	468.364479	29.761252	-51.968851	1438.657815	170.465277	11.723522	14.377038	-45.000000	26.051285	40.913720	-18.895755	45.000000	3346.343557	-5282.794598	22.553438	180.000000	1797.145806	45.908390	17.364390	-21.980497	
12.9800	-90.000000	90.000000	-90.000000	4.094281	807.904147	-38.138699	27.962435	36.459171	45.000000	45.000000	11.458235	2491.097784	468.318933	29.802358	-52.092601	1438.733135	171.027981	11.692929	14.323809	-45.000000	26.412056	41.028418	-19.143749	45.000000	3346.488292	-5282.787528	22.521778	180.000000	1797.162993	45.928569	17.379328	-21.860738	
12.9900	-90.000000	90.000000	-90.000000	6.276587	806.279155	-37.960322	27.863713	36.520838	45.000000	45.000000	11.385042	2490.790074	468.275207	29.846899	-52.192891	1438.810887	171.577263	11.660071	14.268942	-45.000000	26.774647	41.141123	-19.394983	45.000000	3346.633797	-5282.782448	22.492415	180.000000	1797.172290	45.948620	17.388591	-21.743753	
13.0000	-90.000000	90.000000	-90.000000	8.425693	804.645709	-37.784813	27.762790	36.584445	45.000000	45.000000	11.318186	2490.481786	468.232788	29.895561	-52.270055	1438.888799	172.112303	11.626162	14.211677	-45.000000	27.138435	41.251281	-19.649051	45.000000	3346.778741	-5282.779020	22.463797	180.000000	1797.175035	45.970384	17.391014	-21.629273	
13.0100	-90.000000	90.000000	-90.000000	10.542275	803.006405	-37.611015	27.660288	36.650584	45.000000	45.000000	11.259087	2490.171216	468.190328	29.950325	-52.325367	1438.964637	172.633050	11.592874	14.150516	-45.000000	27.499636	41.358943	-19.904784	45.000000	3346.921264	-5282.775809	22.436390	180.000000	1797.173856	45.994973	17.383813	-21.515968	
13.0200	-90.000000	90.000000	-90.000000	12.627806	801.362609	-37.437621	27.556198	36.719246	45.000000	45.000000	11.207524	2489.857714	468.147944	30.011396	-52.359042	1439.038426	173.138476	11.560596	14.085400	-45.000000	27.859752	41.464051	-20.162466	45.000000	3347.062204	-5282.773960	22.410150	180.000000	1797.167938	46.023145	17.367076	-21.402882	
13.0300	-90.000000	90.000000	-90.000000	14.683475	799.714847	-37.263580	27.450289	36.789977	45.000000	45.000000	11.161237	2489.541083	468.106281	30.078762	-52.370402	1439.112210	173.626387	11.528324	14.017124	-45.000000	28.218426	41.567011	-20.422730	45.000000	3347.203454	-5282.774222	22.386874	180.000000	1797.156685	46.054167	17.341428	-21.289328	
13.0400	-90.000000	90.000000	-90.000000	16.709685	798.062995	-37.088459	27.342285	36.861686	45.000000	45.000000	11.118466	2489.221275	468.066865	30.151901	-52.358748	1439.187354	174.093277	11.494760	13.946891	-45.000000	28.578228	41.667099	-20.686097	45.000000	3347.348748	-5282.778546	22.368882	180.000000	1797.137605	46.086498	17.308644	-21.174246	
13.0500	-90.000000	90.000000	-90.000000	18.705204	796.407032	-36.912821	27.232375	36.932974	45.000000	45.000000	11.077356	2488.896807	468.030256	30.232600	-52.323938	1439.264735	174.535653	11.458634	13.874778	-45.000000	28.935856	41.763187	-20.954087	45.000000	3347.501926	-5282.787359	22.359888	180.000000	1797.112449	46.117155	17.267869	-21.055858	
13.0600	-90.000000	90.000000	-90.000000	20.667777	794.747147	-36.738165	27.121190	37.002369	45.000000	45.000000	11.038732	2488.567135	467.996588	30.321596	-52.267055	1439.342370	174.950587	11.420286	13.800131	-45.000000	29.292804	41.853062	-21.227893	45.000000	3347.664102	-5282.801224	22.359133	180.000000	1797.082097	46.143402	17.219961	-20.933086	
13.0700	-90.000000	90.000000	-90.000000	22.594613	793.084206	-36.566650	27.009058	37.067611	45.000000	45.000000	10.999779	2488.224985	467.966564	30.426860	-52.187893	1439.422320	175.333883	11.377437	13.720569	-45.000000	29.639207	41.934180	-21.513344	45.000000	3347.850227	-5282.824371	22.379746	180.000000	1797.050373	46.162534	17.157180	-20.798893	
13.0800	-90.000000	90.000000	-90.000000	24.484150	791.419280	-36.400492	26.896800	37.128040	45.000000	45.000000	10.964452	2487.875358	467.939719	30.543298	-52.088941	1439.498881	175.681716	11.333090	13.635850	-45.000000	29.988329	42.004514	-21.808156	45.000000	3348.052792	-5282.854821	22.411057	180.000000	1797.015231	46.173311	17.087097	-20.657282	
13.0900	-90.000000	90.000000	-90.000000	26.336106	789.754215	-36.241571	26.784703	37.183907	45.000000	45.000000	10.929536	2487.521082	467.917302	30.669002	-51.966709	1439.574894	175.992320	11.286067	13.548754	-45.000000	30.320923	42.067421	-22.105199	45.000000	3348.258109	-5282.886997	22.445379	180.000000	1796.974858	46.174650	17.013268	-20.509749	
13.1000	-90.000000	90.000000	-90.000000	28.152246	788.091149	-36.091075	26.673156	37.236511	45.000000	45.000000	10.896275	2487.173273	467.898878	30.793073	-51.821145	1439.648225	176.264778	11.239225	13.462513	-45.000000	30.660600	42.125855	-22.400517	45.000000	3348.449724	-5282.919377	22.466479	180.000000	1796.924066	46.165900	16.948412	-20.364896	
13.1100	-90.000000	90.000000	-90.000000	29.935329	786.432947	-35.949523	26.562002	37.286456	45.000000	45.000000	10.858994	2486.831876	467.886543	30.916670	-51.647379	1439.724994	176.498046	11.190056	13.379736	-45.000000	30.988308	42.183495	-22.690130	45.000000	3348.625300	-5282.949944	22.478809	180.000000	1796.862518	46.145953	16.890477	-20.221266	
13.1200	-90.000000	90.000000	-90.000000	31.688789	784.782685	-35.816840	26.451522	37.334879	45.000000	45.000000	10.820677	2486.505460	467.879692	31.031446	-51.447140	1439.801445	176.689852	11.141983	13.301945	-45.000000	31.334145	42.241184	-22.973613	45.000000	3348.778164	-5282.978992	22.473570	180.000000	1796.788088	46.114131	16.847689	-20.085735	
13.1300	-90.000000	90.000000	-90.000000	33.415103	783.144175	-35.692616	26.341726	37.382188	45.000000	45.000000	10.777792	2486.191309	467.880111	31.141557	-51.216733	1439.881403	176.838188	11.092874	13.230371	-45.000000	31.670985	42.300924	-23.247882	45.000000	3348.908121	-5283.003435	22.456820	180.000000	1796.703902	46.069442	16.814236	-19.955241	
